<svg width="153" height="58" viewBox="0 0 153 58" fill="none" xmlns="http://www.w3.org/2000/svg">
    <g clip-path="url(#s2k5b8pmna)">
        <path d="M41.608 16.103v-5.785H33.04V58h8.932V30.13c0-7.509 7.41-11.854 15.091-10.68V10.31c-6.338-.543-13.04 1.26-15.449 5.785M8.932 37.276V19h11.425V9.95H8.932V0H0v39.362C0 55.647 14.02 58 23.216 58v-9.051c-6.338 0-14.284-.811-14.284-11.673z" fill="#fff"/>
        <path d="M146.044 25.2c-4.147-4.092-9.592-6.32-15.378-6.32h-.226c-5.864.08-11.347 2.464-15.448 6.714-1.041 1.078-2.082 2.172-3.123 3.25-.994 1.024-1.972 2.055-2.959 3.078-.839.874-1.126 1.173-1.763 1.834-.202.173-.38.362-.551.567-.016.016-.031.04-.063.063-2.586 2.715.125 7.233 3.48 7.233 2.268 0 3.557-1.81 5.002-3.306l6.26-6.509a12.994 12.994 0 0 1 9.266-4.03h.078c2.641 0 5.25.74 7.425 2.251 3.674 2.55 5.779 6.572 5.833 10.925.039 3.566-1.281 6.934-3.743 9.492-1.686 1.755-1.655 4.573.077 6.289a4.327 4.327 0 0 0 3.092 1.26c1.134 0 2.26-.457 3.114-1.339 4.093-4.258 6.307-9.87 6.237-15.812-.07-5.943-2.431-11.5-6.625-15.647l.015.008z" fill="url(#2toeps4bpb)"/>
        <path d="M76.451 56.098c2.284 1.03 4.8 1.645 7.464 1.818 1.002.07 2.035.07 3.076.008a25.774 25.774 0 0 0 8.28-1.897 2.49 2.49 0 0 0 .217-.087c2.89-1.212 5.119-2.975 7.27-5.045.334-.315.66-.645.987-.976.768-.78 1.266-1.834 1.281-2.936v-.055c0-2.558-2.221-4.699-4.746-4.58h-.062c-1.087.062-2.105.598-2.866 1.385l-.42.433h-.007c-.039.039-.085.078-.132.118-2.998 2.762-6.353 4.927-10.734 4.927-1.382 0-2.726-.19-3.992-.551-.023 0-.039 0-.055-.008-1.133-.284-2.22-.716-3.215-1.338a14.793 14.793 0 0 1-3.153-2.33 16.087 16.087 0 0 1-4.987-11.657c0-9.995 7.969-15.796 15.418-15.796 3.277 0 7.55 1.314 10.563 4.58 1.499 1.63 4.046 1.89 5.786.52 1.981-1.566 2.19-4.447.575-6.305-3.985-4.58-10.385-7.563-17.173-7.563-12.031 0-23.814 9.736-23.814 24.564 0 8.39 4.171 15.86 10.44 20.323 2.05 1.637 4.023 2.432 4.023 2.432l-.024.016z" fill="#fff"/>
    </g>
    <defs>
        <linearGradient id="2toeps4bpb" x1="52.009" y1="37.943" x2="194.122" y2="38.748" gradientUnits="userSpaceOnUse">
            <stop stop-color="#00A1E8"/>
            <stop offset=".24" stop-color="#00F6EB"/>
            <stop offset=".36" stop-color="#00F3EA"/>
            <stop offset=".44" stop-color="#00E9E8"/>
            <stop offset=".51" stop-color="#00D9E5"/>
            <stop offset=".58" stop-color="#00C2E0"/>
            <stop offset=".64" stop-color="#00A5DA"/>
            <stop offset=".69" stop-color="#008DD6"/>
            <stop offset=".98" stop-color="#FF7AD2"/>
        </linearGradient>
        <clipPath id="s2k5b8pmna">
            <path fill="#fff" d="M0 0h152.676v58H0z"/>
        </clipPath>
    </defs>
</svg>
